<?xml version="1.0" encoding="utf-8"?>
<!-- Generator: Adobe Illustrator 23.0.1, SVG Export Plug-In . SVG Version: 6.00 Build 0)  -->
<svg version="1.1" id="Layer_1" xmlns="http://www.w3.org/2000/svg" xmlns:xlink="http://www.w3.org/1999/xlink" x="0px" y="0px"
	 viewBox="0 0 400 400" style="enable-background:new 0 0 400 400;" xml:space="preserve">
<style type="text/css">
	.st0{fill:#B4B4D8;}
	.st1{fill:#3249D6;}
	.st2{fill:#FFFFFF;stroke:#000000;stroke-miterlimit:10;}
	.st3{fill:#FFFFFF;}
</style>
<g>
	<rect x="178.5" y="132.5" class="st0" width="189" height="189"/>
	<path class="st0" d="M366,134v186H180V134H366 M369,131H177v192h192V131L369,131z"/>
</g>
<g>
	<rect x="78.5" y="42.5" class="st1" width="189" height="189"/>
	<g>
		<path class="st1" d="M266,44v186H80V44H266 M269,41H77v192h192V41L269,41z"/>
	</g>
</g>
<g>
	<path class="st2" d="M104.7,259.6v37.1c0,9,7.3,16.2,16.3,16.2h20.2"/>
	<path class="st2" d="M104.7,243.5l4.7-5.5l2.4,2.8l15.9,18.8h-15.9v33.3c0,6.6,5.3,11.9,11.9,11.9h18l1-16.8l17.5,16.8l2.9,2.8
		l-7.2,5.4"/>
	<polyline class="st2" points="111.7,259.6 127.6,259.6 111.7,240.8 	"/>
	<polyline class="st2" points="141.6,304.8 142.6,288 160.2,304.8 	"/>
	<g>
		<polygon class="st3" points="142.1,304.8 143.1,289.1 162.3,307.5 141,323.5 		"/>
		<path d="M143.5,290.2l16,15.3l2,2l-6.2,4.7l-13.8,10.3l0.6-9.4l0.5-8.1L143.5,290.2 M142.6,288l-1,16.8l-0.5,8.1l-0.7,11.6
			l15.5-11.6l7.2-5.4l-2.9-2.8L142.6,288L142.6,288z"/>
	</g>
	<g>
		<polygon class="st3" points="92.1,259.1 105.1,243.8 109.3,238.8 126.6,259.1 		"/>
		<path d="M109.3,239.5l1.6,1.9l14.5,17.2H93.2l12.3-14.5L109.3,239.5 M109.3,238l-4.7,5.5L91,259.6h36.6l-15.9-18.8L109.3,238
			L109.3,238z"/>
	</g>
	<path class="st2" d="M104.7,259.6v37.1c0,9,7.3,16.2,16.3,16.2h20.2"/>
	<path class="st2" d="M104.7,243.5l4.7-5.5l2.4,2.8l15.9,18.8h-15.9v33.3c0,6.6,5.3,11.9,11.9,11.9h18l1-16.8l17.5,16.8l2.9,2.8
		l-7.2,5.4"/>
	<polyline class="st2" points="111.7,259.6 127.6,259.6 111.7,240.8 	"/>
	<polyline class="st2" points="141.6,304.8 142.6,288 160.2,304.8 	"/>
	<g>
		<polygon class="st3" points="142.1,304.8 143.1,289.1 162.3,307.5 141,323.5 		"/>
		<path d="M143.5,290.2l16,15.3l2,2l-6.2,4.7l-13.8,10.3l0.6-9.4l0.5-8.1L143.5,290.2 M142.6,288l-1,16.8l-0.5,8.1l-0.7,11.6
			l15.5-11.6l7.2-5.4l-2.9-2.8L142.6,288L142.6,288z"/>
	</g>
	<g>
		<polygon class="st3" points="92.1,259.1 105.1,243.8 109.3,238.8 126.6,259.1 		"/>
		<path d="M109.3,239.5l1.6,1.9l14.5,17.2H93.2l12.3-14.5L109.3,239.5 M109.3,238l-4.7,5.5L91,259.6h36.6l-15.9-18.8L109.3,238
			L109.3,238z"/>
	</g>
</g>
</svg>
