<?xml version="1.0" encoding="utf-8"?>
<!-- Generator: Adobe Illustrator 23.0.1, SVG Export Plug-In . SVG Version: 6.00 Build 0)  -->
<svg version="1.1" id="Capa_1" xmlns="http://www.w3.org/2000/svg" xmlns:xlink="http://www.w3.org/1999/xlink" x="0px" y="0px"
	 viewBox="0 0 509.8 509.8" style="enable-background:new 0 0 509.8 509.8;" xml:space="preserve">
<style type="text/css">
	.st0{fill:none;stroke:#000000;stroke-width:3;stroke-miterlimit:10;}
</style>
<g>
	<path class="st0" d="M509.8,254.9c0,140.6-114.4,254.9-254.9,254.9C114.4,509.8,0,395.5,0,254.9h45c0,115.8,94.2,209.9,209.9,209.9
		c115.8,0,209.9-94.2,209.9-209.9C464.9,139.2,370.7,45,254.9,45c-50.9,0-99.5,18.3-137.7,51.6l45.9,45.9L20.5,165.2L43.3,22.6
		l42.1,42C132.1,23,192.1,0,254.9,0C395.5,0,509.8,114.4,509.8,254.9z M424.7,251.2L270,96.5L115.3,251.2L270,405.8L424.7,251.2z"/>
</g>
</svg>
