<?xml version="1.0" encoding="utf-8"?>
<!-- Generator: Adobe Illustrator 23.0.1, SVG Export Plug-In . SVG Version: 6.00 Build 0)  -->
<svg version="1.1" id="Layer_1" xmlns="http://www.w3.org/2000/svg" xmlns:xlink="http://www.w3.org/1999/xlink" x="0px" y="0px"
	 viewBox="0 0 400 400" style="enable-background:new 0 0 400 400;" xml:space="preserve">
<style type="text/css">
	.st0{fill:#FFFFFF;stroke:#000000;stroke-width:8;stroke-miterlimit:10;}
	.st1{fill:#FFFFFF;}
</style>
<path class="st0" d="M60.1,93.2C92.3,51.1,143,24,200,24c97.2,0,176,78.8,176,176s-78.8,176-176,176c-33,0-63.9-9.1-90.4-24.9"/>
<g>
	<rect x="113" y="113" transform="matrix(0.7071 -0.7071 0.7071 0.7071 -82.8427 199.9999)" class="st1" width="174" height="174"/>
	<path d="M200,82.6L317.4,200L200,317.4L82.6,200L200,82.6 M200,71.3L71.3,200L200,328.7L328.7,200L200,71.3L200,71.3z"/>
</g>
<g>
	<polygon class="st1" points="33,82.8 92.4,113 36.6,149.2 	"/>
	<path d="M36.3,87.8l50.1,25.4l-47.1,30.6L36.3,87.8 M29.8,77.8l4.1,76.8l64.5-42L29.8,77.8L29.8,77.8z"/>
</g>
</svg>
